<?xml version="1.0" encoding="UTF-8" standalone="no"?>
<!DOCTYPE svg PUBLIC "-//W3C//DTD SVG 1.1//EN"
 "http://www.w3.org/Graphics/SVG/1.1/DTD/svg11.dtd">
<!-- Generated by graphviz version 2.43.0 (0)
 -->
<!-- Title: %3 Pages: 1 -->
<svg width="640pt" height="305pt"
 viewBox="0.00 0.00 639.88 304.86" xmlns="http://www.w3.org/2000/svg" xmlns:xlink="http://www.w3.org/1999/xlink">
<g id="graph0" class="graph" transform="scale(1 1) rotate(0) translate(4 300.86)">
<title>%3</title>
<polygon fill="white" stroke="transparent" points="-4,4 -4,-300.86 635.88,-300.86 635.88,4 -4,4"/>
<!-- add_49d0bf4a49 -->
<g id="node1" class="node">
<title>add_49d0bf4a49</title>
<ellipse fill="none" stroke="black" cx="318.27" cy="-148.43" rx="171.24" ry="37.45"/>
<text text-anchor="middle" x="318.27" y="-159.73" font-family="Times,serif" font-size="14.00">Node(name=&#39;add_49d0bf4a49&#39;)</text>
<text text-anchor="middle" x="318.27" y="-144.73" font-family="Times,serif" font-size="14.00">add</text>
<text text-anchor="middle" x="318.27" y="-129.73" font-family="Times,serif" font-size="14.00">(5, 10)</text>
</g>
<!-- exp_9846b3472d -->
<g id="node2" class="node">
<title>exp_9846b3472d</title>
<ellipse fill="none" stroke="black" cx="318.27" cy="-37.48" rx="173.48" ry="37.45"/>
<text text-anchor="middle" x="318.27" y="-48.78" font-family="Times,serif" font-size="14.00">Node(name=&#39;exp_9846b3472d&#39;)</text>
<text text-anchor="middle" x="318.27" y="-33.78" font-family="Times,serif" font-size="14.00">exp</text>
<text text-anchor="middle" x="318.27" y="-18.78" font-family="Times,serif" font-size="14.00">(5, 10)</text>
</g>
<!-- add_49d0bf4a49&#45;&gt;exp_9846b3472d -->
<g id="edge3" class="edge">
<title>add_49d0bf4a49&#45;&gt;exp_9846b3472d</title>
<path fill="none" stroke="black" d="M318.27,-110.85C318.27,-102.67 318.27,-93.89 318.27,-85.37"/>
<polygon fill="black" stroke="black" points="321.77,-85.15 318.27,-75.15 314.77,-85.15 321.77,-85.15"/>
</g>
<!-- random((10,)) -->
<g id="node3" class="node">
<title>random((10,))</title>
<ellipse fill="none" stroke="black" cx="156.27" cy="-259.38" rx="156.04" ry="37.45"/>
<text text-anchor="middle" x="156.27" y="-270.68" font-family="Times,serif" font-size="14.00">Node(name=&#39;random((10,))&#39;)</text>
<text text-anchor="middle" x="156.27" y="-255.68" font-family="Times,serif" font-size="14.00">Constant</text>
<text text-anchor="middle" x="156.27" y="-240.68" font-family="Times,serif" font-size="14.00">(10,)</text>
</g>
<!-- random((10,))&#45;&gt;add_49d0bf4a49 -->
<g id="edge1" class="edge">
<title>random((10,))&#45;&gt;add_49d0bf4a49</title>
<path fill="none" stroke="black" d="M207.53,-223.91C223.55,-213.13 241.38,-201.14 257.97,-189.99"/>
<polygon fill="black" stroke="black" points="260.17,-192.73 266.51,-184.24 256.26,-186.92 260.17,-192.73"/>
</g>
<!-- ones((5, 10)) -->
<g id="node4" class="node">
<title>ones((5, 10))</title>
<ellipse fill="none" stroke="black" cx="481.27" cy="-259.38" rx="150.73" ry="37.45"/>
<text text-anchor="middle" x="481.27" y="-270.68" font-family="Times,serif" font-size="14.00">Node(name=&#39;ones((5, 10))&#39;)</text>
<text text-anchor="middle" x="481.27" y="-255.68" font-family="Times,serif" font-size="14.00">Constant</text>
<text text-anchor="middle" x="481.27" y="-240.68" font-family="Times,serif" font-size="14.00">(5, 10)</text>
</g>
<!-- ones((5, 10))&#45;&gt;add_49d0bf4a49 -->
<g id="edge2" class="edge">
<title>ones((5, 10))&#45;&gt;add_49d0bf4a49</title>
<path fill="none" stroke="black" d="M429.7,-223.91C413.57,-213.13 395.64,-201.14 378.95,-189.99"/>
<polygon fill="black" stroke="black" points="380.61,-186.89 370.35,-184.24 376.72,-192.71 380.61,-186.89"/>
</g>
</g>
</svg>
