<?xml version="1.0" encoding="UTF-8" standalone="no"?>
<!DOCTYPE svg PUBLIC "-//W3C//DTD SVG 1.1//EN"
 "http://www.w3.org/Graphics/SVG/1.1/DTD/svg11.dtd">
<!-- Generated by graphviz version 2.43.0 (0)
 -->
<!-- Title: %3 Pages: 1 -->
<svg width="977pt" height="305pt"
 viewBox="0.00 0.00 977.08 304.86" xmlns="http://www.w3.org/2000/svg" xmlns:xlink="http://www.w3.org/1999/xlink">
<g id="graph0" class="graph" transform="scale(1 1) rotate(0) translate(4 300.86)">
<title>%3</title>
<polygon fill="white" stroke="transparent" points="-4,4 -4,-300.86 973.08,-300.86 973.08,4 -4,4"/>
<!-- add_49d0bf4a49 -->
<g id="node1" class="node">
<title>add_49d0bf4a49</title>
<ellipse fill="none" stroke="black" cx="227.27" cy="-148.43" rx="171.24" ry="37.45"/>
<text text-anchor="middle" x="227.27" y="-159.73" font-family="Times,serif" font-size="14.00">Node(name=&#39;add_49d0bf4a49&#39;)</text>
<text text-anchor="middle" x="227.27" y="-144.73" font-family="Times,serif" font-size="14.00">add</text>
<text text-anchor="middle" x="227.27" y="-129.73" font-family="Times,serif" font-size="14.00">(5, 10)</text>
</g>
<!-- exp_9846b3472d -->
<g id="node4" class="node">
<title>exp_9846b3472d</title>
<ellipse fill="none" stroke="black" cx="227.27" cy="-37.48" rx="173.48" ry="37.45"/>
<text text-anchor="middle" x="227.27" y="-48.78" font-family="Times,serif" font-size="14.00">Node(name=&#39;exp_9846b3472d&#39;)</text>
<text text-anchor="middle" x="227.27" y="-33.78" font-family="Times,serif" font-size="14.00">exp</text>
<text text-anchor="middle" x="227.27" y="-18.78" font-family="Times,serif" font-size="14.00">(5, 10)</text>
</g>
<!-- add_49d0bf4a49&#45;&gt;exp_9846b3472d -->
<g id="edge4" class="edge">
<title>add_49d0bf4a49&#45;&gt;exp_9846b3472d</title>
<path fill="none" stroke="black" d="M227.27,-110.85C227.27,-102.67 227.27,-93.89 227.27,-85.37"/>
<polygon fill="black" stroke="black" points="230.77,-85.15 227.27,-75.15 223.77,-85.15 230.77,-85.15"/>
</g>
<!-- random((5, 1)) -->
<g id="node2" class="node">
<title>random((5, 1))</title>
<ellipse fill="none" stroke="black" cx="809.27" cy="-259.38" rx="159.61" ry="37.45"/>
<text text-anchor="middle" x="809.27" y="-270.68" font-family="Times,serif" font-size="14.00">Node(name=&#39;random((5, 1))&#39;)</text>
<text text-anchor="middle" x="809.27" y="-255.68" font-family="Times,serif" font-size="14.00">Constant</text>
<text text-anchor="middle" x="809.27" y="-240.68" font-family="Times,serif" font-size="14.00">(5, 1)</text>
</g>
<!-- add_ddd049f68a -->
<g id="node5" class="node">
<title>add_ddd049f68a</title>
<ellipse fill="none" stroke="black" cx="737.27" cy="-148.43" rx="171.24" ry="37.45"/>
<text text-anchor="middle" x="737.27" y="-159.73" font-family="Times,serif" font-size="14.00">Node(name=&#39;add_ddd049f68a&#39;)</text>
<text text-anchor="middle" x="737.27" y="-144.73" font-family="Times,serif" font-size="14.00">add</text>
<text text-anchor="middle" x="737.27" y="-129.73" font-family="Times,serif" font-size="14.00">(5, 10)</text>
</g>
<!-- random((5, 1))&#45;&gt;add_ddd049f68a -->
<g id="edge5" class="edge">
<title>random((5, 1))&#45;&gt;add_ddd049f68a</title>
<path fill="none" stroke="black" d="M785.3,-222.1C779.34,-213.1 772.9,-203.34 766.72,-193.99"/>
<polygon fill="black" stroke="black" points="769.57,-191.96 761.14,-185.55 763.73,-195.82 769.57,-191.96"/>
</g>
<!-- tanh_4a11cc31dd -->
<g id="node3" class="node">
<title>tanh_4a11cc31dd</title>
<ellipse fill="none" stroke="black" cx="737.27" cy="-37.48" rx="175.23" ry="37.45"/>
<text text-anchor="middle" x="737.27" y="-48.78" font-family="Times,serif" font-size="14.00">Node(name=&#39;tanh_4a11cc31dd&#39;)</text>
<text text-anchor="middle" x="737.27" y="-33.78" font-family="Times,serif" font-size="14.00">tanh</text>
<text text-anchor="middle" x="737.27" y="-18.78" font-family="Times,serif" font-size="14.00">(5, 10)</text>
</g>
<!-- add_ddd049f68a&#45;&gt;tanh_4a11cc31dd -->
<g id="edge3" class="edge">
<title>add_ddd049f68a&#45;&gt;tanh_4a11cc31dd</title>
<path fill="none" stroke="black" d="M737.27,-110.85C737.27,-102.67 737.27,-93.89 737.27,-85.37"/>
<polygon fill="black" stroke="black" points="740.77,-85.15 737.27,-75.15 733.77,-85.15 740.77,-85.15"/>
</g>
<!-- random((10,)) -->
<g id="node6" class="node">
<title>random((10,))</title>
<ellipse fill="none" stroke="black" cx="156.27" cy="-259.38" rx="156.04" ry="37.45"/>
<text text-anchor="middle" x="156.27" y="-270.68" font-family="Times,serif" font-size="14.00">Node(name=&#39;random((10,))&#39;)</text>
<text text-anchor="middle" x="156.27" y="-255.68" font-family="Times,serif" font-size="14.00">Constant</text>
<text text-anchor="middle" x="156.27" y="-240.68" font-family="Times,serif" font-size="14.00">(10,)</text>
</g>
<!-- random((10,))&#45;&gt;add_49d0bf4a49 -->
<g id="edge1" class="edge">
<title>random((10,))&#45;&gt;add_49d0bf4a49</title>
<path fill="none" stroke="black" d="M179.91,-222.1C185.78,-213.1 192.14,-203.34 198.23,-193.99"/>
<polygon fill="black" stroke="black" points="201.2,-195.84 203.73,-185.55 195.34,-192.02 201.2,-195.84"/>
</g>
<!-- ones((5, 10)) -->
<g id="node7" class="node">
<title>ones((5, 10))</title>
<ellipse fill="none" stroke="black" cx="481.27" cy="-259.38" rx="150.73" ry="37.45"/>
<text text-anchor="middle" x="481.27" y="-270.68" font-family="Times,serif" font-size="14.00">Node(name=&#39;ones((5, 10))&#39;)</text>
<text text-anchor="middle" x="481.27" y="-255.68" font-family="Times,serif" font-size="14.00">Constant</text>
<text text-anchor="middle" x="481.27" y="-240.68" font-family="Times,serif" font-size="14.00">(5, 10)</text>
</g>
<!-- ones((5, 10))&#45;&gt;add_49d0bf4a49 -->
<g id="edge2" class="edge">
<title>ones((5, 10))&#45;&gt;add_49d0bf4a49</title>
<path fill="none" stroke="black" d="M407.12,-226.58C377.53,-213.88 343.28,-199.19 312.65,-186.06"/>
<polygon fill="black" stroke="black" points="313.85,-182.76 303.28,-182.03 311.09,-189.19 313.85,-182.76"/>
</g>
<!-- ones((5, 10))&#45;&gt;add_ddd049f68a -->
<g id="edge6" class="edge">
<title>ones((5, 10))&#45;&gt;add_ddd049f68a</title>
<path fill="none" stroke="black" d="M555.66,-226.72C585.49,-214.03 620.07,-199.31 651,-186.15"/>
<polygon fill="black" stroke="black" points="652.64,-189.25 660.47,-182.12 649.9,-182.81 652.64,-189.25"/>
</g>
</g>
</svg>
